<svg width="528" height="390" viewBox="0 0 528 390" fill="none" xmlns="http://www.w3.org/2000/svg">
<g clip-path="url(#clip0_603_1101)">
<rect width="390" height="528" transform="translate(528) rotate(90)" fill="url(#paint0_radial_603_1101)"/>
<rect width="390" height="528" transform="translate(528) rotate(90)" fill="url(#paint1_radial_603_1101)"/>
<rect width="390" height="528" transform="translate(528) rotate(90)" fill="url(#paint2_radial_603_1101)"/>
<rect width="390" height="528" transform="translate(528) rotate(90)" fill="url(#paint3_radial_603_1101)"/>
<rect width="390" height="528" transform="translate(528) rotate(90)" fill="url(#paint4_linear_603_1101)"/>
<g style="mix-blend-mode:overlay" filter="url(#filter0_f_603_1101)">
<mask id="mask0_603_1101" style="mask-type:alpha" maskUnits="userSpaceOnUse" x="263" y="-143" width="245" height="358">
<path fill-rule="evenodd" clip-rule="evenodd" d="M502.25 158.188L328.359 -143L263.407 -105.5L437.298 195.688C447.653 213.624 470.588 219.77 488.524 209.414C506.46 199.059 512.605 176.124 502.25 158.188Z" fill="url(#paint5_linear_603_1101)"/>
</mask>
<g mask="url(#mask0_603_1101)">
<path fill-rule="evenodd" clip-rule="evenodd" d="M502.25 158.188L328.359 -143L263.407 -105.5L437.298 195.688C447.653 213.624 470.588 219.77 488.524 209.414C506.46 199.059 512.605 176.124 502.25 158.188Z" fill="black"/>
<path fill-rule="evenodd" clip-rule="evenodd" d="M502.25 158.188L328.359 -143L263.407 -105.5L437.298 195.688C447.653 213.624 470.588 219.77 488.524 209.414C506.46 199.059 512.605 176.124 502.25 158.188Z" fill="black"/>
<path fill-rule="evenodd" clip-rule="evenodd" d="M502.25 158.188L328.359 -143L263.407 -105.5L437.298 195.688C447.653 213.624 470.588 219.77 488.524 209.414C506.46 199.059 512.605 176.124 502.25 158.188Z" fill="black"/>
<path fill-rule="evenodd" clip-rule="evenodd" d="M502.25 158.188L328.359 -143L263.407 -105.5L437.298 195.688C447.653 213.624 470.588 219.77 488.524 209.414C506.46 199.059 512.605 176.124 502.25 158.188Z" fill="black"/>
</g>
</g>
<mask id="mask1_603_1101" style="mask-type:alpha" maskUnits="userSpaceOnUse" x="270" y="-143" width="245" height="358">
<path fill-rule="evenodd" clip-rule="evenodd" d="M509.25 158.188L335.359 -143L270.407 -105.5L444.298 195.688C454.653 213.624 477.588 219.77 495.524 209.414C513.46 199.059 519.605 176.124 509.25 158.188Z" fill="url(#paint6_linear_603_1101)"/>
</mask>
<g mask="url(#mask1_603_1101)">
<path fill-rule="evenodd" clip-rule="evenodd" d="M509.25 158.188L335.359 -143L270.407 -105.5L444.298 195.688C454.653 213.624 477.588 219.77 495.524 209.414C513.46 199.059 519.605 176.124 509.25 158.188Z" fill="url(#paint7_radial_603_1101)"/>
<path fill-rule="evenodd" clip-rule="evenodd" d="M509.25 158.188L335.359 -143L270.407 -105.5L444.298 195.688C454.653 213.624 477.588 219.77 495.524 209.414C513.46 199.059 519.605 176.124 509.25 158.188Z" fill="url(#paint8_radial_603_1101)"/>
<path fill-rule="evenodd" clip-rule="evenodd" d="M509.25 158.188L335.359 -143L270.407 -105.5L444.298 195.688C454.653 213.624 477.588 219.77 495.524 209.414C513.46 199.059 519.605 176.124 509.25 158.188Z" fill="url(#paint9_radial_603_1101)"/>
<path fill-rule="evenodd" clip-rule="evenodd" d="M509.25 158.188L335.359 -143L270.407 -105.5L444.298 195.688C454.653 213.624 477.588 219.77 495.524 209.414C513.46 199.059 519.605 176.124 509.25 158.188Z" fill="url(#paint10_radial_603_1101)"/>
</g>
<mask id="mask2_603_1101" style="mask-type:alpha" maskUnits="userSpaceOnUse" x="270" y="-143" width="245" height="358">
<path fill-rule="evenodd" clip-rule="evenodd" d="M509.25 158.188L335.359 -143L270.407 -105.5L444.298 195.688C454.653 213.624 477.588 219.77 495.524 209.414C513.46 199.059 519.605 176.124 509.25 158.188Z" fill="url(#paint11_linear_603_1101)"/>
</mask>
<g mask="url(#mask2_603_1101)">
<path fill-rule="evenodd" clip-rule="evenodd" d="M509.25 158.188L335.359 -143L270.407 -105.5L444.298 195.688C454.653 213.624 477.588 219.77 495.524 209.414C513.46 199.059 519.605 176.124 509.25 158.188Z" fill="url(#paint12_radial_603_1101)"/>
<path fill-rule="evenodd" clip-rule="evenodd" d="M509.25 158.188L335.359 -143L270.407 -105.5L444.298 195.688C454.653 213.624 477.588 219.77 495.524 209.414C513.46 199.059 519.605 176.124 509.25 158.188Z" fill="url(#paint13_radial_603_1101)"/>
<path fill-rule="evenodd" clip-rule="evenodd" d="M509.25 158.188L335.359 -143L270.407 -105.5L444.298 195.688C454.653 213.624 477.588 219.77 495.524 209.414C513.46 199.059 519.605 176.124 509.25 158.188Z" fill="url(#paint14_radial_603_1101)"/>
<path fill-rule="evenodd" clip-rule="evenodd" d="M509.25 158.188L335.359 -143L270.407 -105.5L444.298 195.688C454.653 213.624 477.588 219.77 495.524 209.414C513.46 199.059 519.605 176.124 509.25 158.188Z" fill="url(#paint15_radial_603_1101)"/>
</g>
<g style="mix-blend-mode:overlay" filter="url(#filter1_f_603_1101)">
<mask id="mask3_603_1101" style="mask-type:alpha" maskUnits="userSpaceOnUse" x="76" y="-143" width="245" height="358">
<path fill-rule="evenodd" clip-rule="evenodd" d="M315.25 158.188L141.359 -143L76.407 -105.5L250.298 195.688C260.653 213.624 283.588 219.77 301.524 209.414C319.46 199.059 325.605 176.124 315.25 158.188Z" fill="url(#paint16_linear_603_1101)"/>
</mask>
<g mask="url(#mask3_603_1101)">
<path fill-rule="evenodd" clip-rule="evenodd" d="M315.25 158.188L141.359 -143L76.407 -105.5L250.298 195.688C260.653 213.624 283.588 219.77 301.524 209.414C319.46 199.059 325.605 176.124 315.25 158.188Z" fill="black"/>
<path fill-rule="evenodd" clip-rule="evenodd" d="M315.25 158.188L141.359 -143L76.407 -105.5L250.298 195.688C260.653 213.624 283.588 219.77 301.524 209.414C319.46 199.059 325.605 176.124 315.25 158.188Z" fill="black"/>
<path fill-rule="evenodd" clip-rule="evenodd" d="M315.25 158.188L141.359 -143L76.407 -105.5L250.298 195.688C260.653 213.624 283.588 219.77 301.524 209.414C319.46 199.059 325.605 176.124 315.25 158.188Z" fill="black"/>
<path fill-rule="evenodd" clip-rule="evenodd" d="M315.25 158.188L141.359 -143L76.407 -105.5L250.298 195.688C260.653 213.624 283.588 219.77 301.524 209.414C319.46 199.059 325.605 176.124 315.25 158.188Z" fill="black"/>
</g>
</g>
<mask id="mask4_603_1101" style="mask-type:alpha" maskUnits="userSpaceOnUse" x="83" y="-143" width="245" height="358">
<path fill-rule="evenodd" clip-rule="evenodd" d="M322.25 158.188L148.359 -143L83.407 -105.5L257.298 195.688C267.653 213.624 290.588 219.77 308.524 209.414C326.46 199.059 332.605 176.124 322.25 158.188Z" fill="url(#paint17_linear_603_1101)"/>
</mask>
<g mask="url(#mask4_603_1101)">
<path fill-rule="evenodd" clip-rule="evenodd" d="M322.25 158.188L148.359 -143L83.407 -105.5L257.298 195.688C267.653 213.624 290.588 219.77 308.524 209.414C326.46 199.059 332.605 176.124 322.25 158.188Z" fill="url(#paint18_radial_603_1101)"/>
<path fill-rule="evenodd" clip-rule="evenodd" d="M322.25 158.188L148.359 -143L83.407 -105.5L257.298 195.688C267.653 213.624 290.588 219.77 308.524 209.414C326.46 199.059 332.605 176.124 322.25 158.188Z" fill="url(#paint19_radial_603_1101)"/>
<path fill-rule="evenodd" clip-rule="evenodd" d="M322.25 158.188L148.359 -143L83.407 -105.5L257.298 195.688C267.653 213.624 290.588 219.77 308.524 209.414C326.46 199.059 332.605 176.124 322.25 158.188Z" fill="url(#paint20_radial_603_1101)"/>
<path fill-rule="evenodd" clip-rule="evenodd" d="M322.25 158.188L148.359 -143L83.407 -105.5L257.298 195.688C267.653 213.624 290.588 219.77 308.524 209.414C326.46 199.059 332.605 176.124 322.25 158.188Z" fill="url(#paint21_radial_603_1101)"/>
</g>
<mask id="mask5_603_1101" style="mask-type:alpha" maskUnits="userSpaceOnUse" x="83" y="-143" width="245" height="358">
<path fill-rule="evenodd" clip-rule="evenodd" d="M322.25 158.188L148.359 -143L83.407 -105.5L257.298 195.688C267.653 213.624 290.588 219.77 308.524 209.414C326.46 199.059 332.605 176.124 322.25 158.188Z" fill="url(#paint22_linear_603_1101)"/>
</mask>
<g mask="url(#mask5_603_1101)">
<path fill-rule="evenodd" clip-rule="evenodd" d="M322.25 158.188L148.359 -143L83.407 -105.5L257.298 195.688C267.653 213.624 290.588 219.77 308.524 209.414C326.46 199.059 332.605 176.124 322.25 158.188Z" fill="url(#paint23_radial_603_1101)"/>
<path fill-rule="evenodd" clip-rule="evenodd" d="M322.25 158.188L148.359 -143L83.407 -105.5L257.298 195.688C267.653 213.624 290.588 219.77 308.524 209.414C326.46 199.059 332.605 176.124 322.25 158.188Z" fill="url(#paint24_radial_603_1101)"/>
<path fill-rule="evenodd" clip-rule="evenodd" d="M322.25 158.188L148.359 -143L83.407 -105.5L257.298 195.688C267.653 213.624 290.588 219.77 308.524 209.414C326.46 199.059 332.605 176.124 322.25 158.188Z" fill="url(#paint25_radial_603_1101)"/>
<path fill-rule="evenodd" clip-rule="evenodd" d="M322.25 158.188L148.359 -143L83.407 -105.5L257.298 195.688C267.653 213.624 290.588 219.77 308.524 209.414C326.46 199.059 332.605 176.124 322.25 158.188Z" fill="url(#paint26_radial_603_1101)"/>
</g>
<g style="mix-blend-mode:overlay" filter="url(#filter2_f_603_1101)">
<mask id="mask6_603_1101" style="mask-type:alpha" maskUnits="userSpaceOnUse" x="-92" y="-143" width="245" height="358">
<path fill-rule="evenodd" clip-rule="evenodd" d="M147.25 158.188L-26.6411 -143L-91.593 -105.5L82.2981 195.688C92.6535 213.624 115.588 219.77 133.524 209.414C151.46 199.059 157.605 176.124 147.25 158.188Z" fill="url(#paint27_linear_603_1101)"/>
</mask>
<g mask="url(#mask6_603_1101)">
<path fill-rule="evenodd" clip-rule="evenodd" d="M147.25 158.188L-26.6411 -143L-91.593 -105.5L82.2981 195.688C92.6535 213.624 115.588 219.77 133.524 209.414C151.46 199.059 157.605 176.124 147.25 158.188Z" fill="black"/>
<path fill-rule="evenodd" clip-rule="evenodd" d="M147.25 158.188L-26.6411 -143L-91.593 -105.5L82.2981 195.688C92.6535 213.624 115.588 219.77 133.524 209.414C151.46 199.059 157.605 176.124 147.25 158.188Z" fill="black"/>
<path fill-rule="evenodd" clip-rule="evenodd" d="M147.25 158.188L-26.6411 -143L-91.593 -105.5L82.2981 195.688C92.6535 213.624 115.588 219.77 133.524 209.414C151.46 199.059 157.605 176.124 147.25 158.188Z" fill="black"/>
<path fill-rule="evenodd" clip-rule="evenodd" d="M147.25 158.188L-26.6411 -143L-91.593 -105.5L82.2981 195.688C92.6535 213.624 115.588 219.77 133.524 209.414C151.46 199.059 157.605 176.124 147.25 158.188Z" fill="black"/>
</g>
</g>
<mask id="mask7_603_1101" style="mask-type:alpha" maskUnits="userSpaceOnUse" x="-85" y="-143" width="245" height="358">
<path fill-rule="evenodd" clip-rule="evenodd" d="M154.25 158.188L-19.6411 -143L-84.593 -105.5L89.2981 195.688C99.6535 213.624 122.588 219.77 140.524 209.414C158.46 199.059 164.605 176.124 154.25 158.188Z" fill="url(#paint28_linear_603_1101)"/>
</mask>
<g mask="url(#mask7_603_1101)">
<path fill-rule="evenodd" clip-rule="evenodd" d="M154.25 158.188L-19.6411 -143L-84.593 -105.5L89.2981 195.688C99.6535 213.624 122.588 219.77 140.524 209.414C158.46 199.059 164.605 176.124 154.25 158.188Z" fill="url(#paint29_radial_603_1101)"/>
<path fill-rule="evenodd" clip-rule="evenodd" d="M154.25 158.188L-19.6411 -143L-84.593 -105.5L89.2981 195.688C99.6535 213.624 122.588 219.77 140.524 209.414C158.46 199.059 164.605 176.124 154.25 158.188Z" fill="url(#paint30_radial_603_1101)"/>
<path fill-rule="evenodd" clip-rule="evenodd" d="M154.25 158.188L-19.6411 -143L-84.593 -105.5L89.2981 195.688C99.6535 213.624 122.588 219.77 140.524 209.414C158.46 199.059 164.605 176.124 154.25 158.188Z" fill="url(#paint31_radial_603_1101)"/>
<path fill-rule="evenodd" clip-rule="evenodd" d="M154.25 158.188L-19.6411 -143L-84.593 -105.5L89.2981 195.688C99.6535 213.624 122.588 219.77 140.524 209.414C158.46 199.059 164.605 176.124 154.25 158.188Z" fill="url(#paint32_radial_603_1101)"/>
</g>
<mask id="mask8_603_1101" style="mask-type:alpha" maskUnits="userSpaceOnUse" x="-85" y="-143" width="245" height="358">
<path fill-rule="evenodd" clip-rule="evenodd" d="M154.25 158.188L-19.6411 -143L-84.593 -105.5L89.2981 195.688C99.6535 213.624 122.588 219.77 140.524 209.414C158.46 199.059 164.605 176.124 154.25 158.188Z" fill="url(#paint33_linear_603_1101)"/>
</mask>
<g mask="url(#mask8_603_1101)">
<path fill-rule="evenodd" clip-rule="evenodd" d="M154.25 158.188L-19.6411 -143L-84.593 -105.5L89.2981 195.688C99.6535 213.624 122.588 219.77 140.524 209.414C158.46 199.059 164.605 176.124 154.25 158.188Z" fill="url(#paint34_radial_603_1101)"/>
<path fill-rule="evenodd" clip-rule="evenodd" d="M154.25 158.188L-19.6411 -143L-84.593 -105.5L89.2981 195.688C99.6535 213.624 122.588 219.77 140.524 209.414C158.46 199.059 164.605 176.124 154.25 158.188Z" fill="url(#paint35_radial_603_1101)"/>
<path fill-rule="evenodd" clip-rule="evenodd" d="M154.25 158.188L-19.6411 -143L-84.593 -105.5L89.2981 195.688C99.6535 213.624 122.588 219.77 140.524 209.414C158.46 199.059 164.605 176.124 154.25 158.188Z" fill="url(#paint36_radial_603_1101)"/>
<path fill-rule="evenodd" clip-rule="evenodd" d="M154.25 158.188L-19.6411 -143L-84.593 -105.5L89.2981 195.688C99.6535 213.624 122.588 219.77 140.524 209.414C158.46 199.059 164.605 176.124 154.25 158.188Z" fill="url(#paint37_radial_603_1101)"/>
</g>
<g filter="url(#filter3_f_603_1101)">
<mask id="mask9_603_1101" style="mask-type:alpha" maskUnits="userSpaceOnUse" x="383" y="201" width="194" height="306">
<path fill-rule="evenodd" clip-rule="evenodd" d="M415.873 210.247C411.011 201.826 400.244 198.941 391.823 203.803C383.402 208.665 380.517 219.432 385.379 227.853C385.844 228.659 386.364 229.415 386.93 230.117L546.689 506.827L577 489.327L416 210.467L415.998 210.468C415.957 210.394 415.915 210.321 415.873 210.247Z" fill="url(#paint38_linear_603_1101)"/>
</mask>
<g mask="url(#mask9_603_1101)">
<path fill-rule="evenodd" clip-rule="evenodd" d="M415.873 210.247C411.011 201.826 400.244 198.941 391.823 203.803C383.402 208.665 380.517 219.432 385.379 227.853C385.844 228.659 386.364 229.415 386.93 230.117L546.689 506.827L577 489.327L416 210.467L415.998 210.468C415.957 210.394 415.915 210.321 415.873 210.247Z" fill="url(#paint39_radial_603_1101)"/>
<path fill-rule="evenodd" clip-rule="evenodd" d="M415.873 210.247C411.011 201.826 400.244 198.941 391.823 203.803C383.402 208.665 380.517 219.432 385.379 227.853C385.844 228.659 386.364 229.415 386.93 230.117L546.689 506.827L577 489.327L416 210.467L415.998 210.468C415.957 210.394 415.915 210.321 415.873 210.247Z" fill="url(#paint40_radial_603_1101)"/>
</g>
<mask id="mask10_603_1101" style="mask-type:alpha" maskUnits="userSpaceOnUse" x="383" y="201" width="194" height="306">
<path fill-rule="evenodd" clip-rule="evenodd" d="M415.873 210.247C411.011 201.826 400.244 198.941 391.823 203.803C383.402 208.665 380.517 219.432 385.379 227.853C385.844 228.659 386.364 229.415 386.93 230.117L546.689 506.827L577 489.327L416 210.467L415.998 210.468C415.957 210.394 415.915 210.321 415.873 210.247Z" fill="url(#paint41_linear_603_1101)"/>
</mask>
<g mask="url(#mask10_603_1101)">
<path fill-rule="evenodd" clip-rule="evenodd" d="M415.873 210.247C411.011 201.826 400.244 198.941 391.823 203.803C383.402 208.665 380.517 219.432 385.379 227.853C385.844 228.659 386.364 229.415 386.93 230.117L546.689 506.827L577 489.327L416 210.467L415.998 210.468C415.957 210.394 415.915 210.321 415.873 210.247Z" fill="url(#paint42_radial_603_1101)"/>
<path fill-rule="evenodd" clip-rule="evenodd" d="M415.873 210.247C411.011 201.826 400.244 198.941 391.823 203.803C383.402 208.665 380.517 219.432 385.379 227.853C385.844 228.659 386.364 229.415 386.93 230.117L546.689 506.827L577 489.327L416 210.467L415.998 210.468C415.957 210.394 415.915 210.321 415.873 210.247Z" fill="url(#paint43_radial_603_1101)"/>
</g>
</g>
<g filter="url(#filter4_f_603_1101)">
<mask id="mask11_603_1101" style="mask-type:alpha" maskUnits="userSpaceOnUse" x="202" y="201" width="194" height="306">
<path fill-rule="evenodd" clip-rule="evenodd" d="M234.873 210.247C230.011 201.826 219.244 198.941 210.823 203.803C202.402 208.665 199.517 219.432 204.379 227.853C204.844 228.659 205.364 229.415 205.93 230.117L365.689 506.827L396 489.327L235 210.467L234.998 210.468C234.957 210.394 234.915 210.321 234.873 210.247Z" fill="url(#paint44_linear_603_1101)"/>
</mask>
<g mask="url(#mask11_603_1101)">
<path fill-rule="evenodd" clip-rule="evenodd" d="M234.873 210.247C230.011 201.826 219.244 198.941 210.823 203.803C202.402 208.665 199.517 219.432 204.379 227.853C204.844 228.659 205.364 229.415 205.93 230.117L365.689 506.827L396 489.327L235 210.467L234.998 210.468C234.957 210.394 234.915 210.321 234.873 210.247Z" fill="url(#paint45_radial_603_1101)"/>
<path fill-rule="evenodd" clip-rule="evenodd" d="M234.873 210.247C230.011 201.826 219.244 198.941 210.823 203.803C202.402 208.665 199.517 219.432 204.379 227.853C204.844 228.659 205.364 229.415 205.93 230.117L365.689 506.827L396 489.327L235 210.467L234.998 210.468C234.957 210.394 234.915 210.321 234.873 210.247Z" fill="url(#paint46_radial_603_1101)"/>
</g>
</g>
<g filter="url(#filter5_f_603_1101)">
<mask id="mask12_603_1101" style="mask-type:alpha" maskUnits="userSpaceOnUse" x="21" y="201" width="194" height="306">
<path fill-rule="evenodd" clip-rule="evenodd" d="M53.8727 210.247C49.011 201.826 38.2435 198.941 29.8228 203.803C21.4021 208.665 18.517 219.432 23.3787 227.853C23.8442 228.659 24.3639 229.415 24.9304 230.117L184.689 506.827L215 489.327L53.9999 210.467L53.9983 210.468C53.957 210.394 53.9152 210.321 53.8727 210.247Z" fill="url(#paint47_linear_603_1101)"/>
</mask>
<g mask="url(#mask12_603_1101)">
<path fill-rule="evenodd" clip-rule="evenodd" d="M53.8727 210.247C49.011 201.826 38.2435 198.941 29.8228 203.803C21.4021 208.665 18.517 219.432 23.3787 227.853C23.8442 228.659 24.3639 229.415 24.9304 230.117L184.689 506.827L215 489.327L53.9999 210.467L53.9983 210.468C53.957 210.394 53.9152 210.321 53.8727 210.247Z" fill="url(#paint48_radial_603_1101)"/>
<path fill-rule="evenodd" clip-rule="evenodd" d="M53.8727 210.247C49.011 201.826 38.2435 198.941 29.8228 203.803C21.4021 208.665 18.517 219.432 23.3787 227.853C23.8442 228.659 24.3639 229.415 24.9304 230.117L184.689 506.827L215 489.327L53.9999 210.467L53.9983 210.468C53.957 210.394 53.9152 210.321 53.8727 210.247Z" fill="url(#paint49_radial_603_1101)"/>
</g>
</g>
</g>
<defs>
<filter id="filter0_f_603_1101" x="183.407" y="-223" width="403.873" height="517.445" filterUnits="userSpaceOnUse" color-interpolation-filters="sRGB">
<feFlood flood-opacity="0" result="BackgroundImageFix"/>
<feBlend mode="normal" in="SourceGraphic" in2="BackgroundImageFix" result="shape"/>
<feGaussianBlur stdDeviation="40" result="effect1_foregroundBlur_603_1101"/>
</filter>
<filter id="filter1_f_603_1101" x="-3.59302" y="-223" width="403.873" height="517.445" filterUnits="userSpaceOnUse" color-interpolation-filters="sRGB">
<feFlood flood-opacity="0" result="BackgroundImageFix"/>
<feBlend mode="normal" in="SourceGraphic" in2="BackgroundImageFix" result="shape"/>
<feGaussianBlur stdDeviation="40" result="effect1_foregroundBlur_603_1101"/>
</filter>
<filter id="filter2_f_603_1101" x="-171.593" y="-223" width="403.873" height="517.445" filterUnits="userSpaceOnUse" color-interpolation-filters="sRGB">
<feFlood flood-opacity="0" result="BackgroundImageFix"/>
<feBlend mode="normal" in="SourceGraphic" in2="BackgroundImageFix" result="shape"/>
<feGaussianBlur stdDeviation="40" result="effect1_foregroundBlur_603_1101"/>
</filter>
<filter id="filter3_f_603_1101" x="381.017" y="199.441" width="197.983" height="309.386" filterUnits="userSpaceOnUse" color-interpolation-filters="sRGB">
<feFlood flood-opacity="0" result="BackgroundImageFix"/>
<feBlend mode="normal" in="SourceGraphic" in2="BackgroundImageFix" result="shape"/>
<feGaussianBlur stdDeviation="1" result="effect1_foregroundBlur_603_1101"/>
</filter>
<filter id="filter4_f_603_1101" x="200.017" y="199.441" width="197.983" height="309.386" filterUnits="userSpaceOnUse" color-interpolation-filters="sRGB">
<feFlood flood-opacity="0" result="BackgroundImageFix"/>
<feBlend mode="normal" in="SourceGraphic" in2="BackgroundImageFix" result="shape"/>
<feGaussianBlur stdDeviation="1" result="effect1_foregroundBlur_603_1101"/>
</filter>
<filter id="filter5_f_603_1101" x="19.0171" y="199.441" width="197.983" height="309.386" filterUnits="userSpaceOnUse" color-interpolation-filters="sRGB">
<feFlood flood-opacity="0" result="BackgroundImageFix"/>
<feBlend mode="normal" in="SourceGraphic" in2="BackgroundImageFix" result="shape"/>
<feGaussianBlur stdDeviation="1" result="effect1_foregroundBlur_603_1101"/>
</filter>
<radialGradient id="paint0_radial_603_1101" cx="0" cy="0" r="1" gradientUnits="userSpaceOnUse" gradientTransform="translate(390 542.5) rotate(-132.433) scale(410.534 316.781)">
<stop offset="0.0416667" stop-color="#1D20D4"/>
<stop offset="1" stop-color="#1D20D4" stop-opacity="0"/>
</radialGradient>
<radialGradient id="paint1_radial_603_1101" cx="0" cy="0" r="1" gradientUnits="userSpaceOnUse" gradientTransform="translate(390 2.04444e-05) rotate(125.26) scale(420.066 310.276)">
<stop stop-color="#F0B7F1"/>
<stop offset="0.0001" stop-color="#FEC2FF"/>
<stop offset="1" stop-color="#FEC2FF" stop-opacity="0"/>
</radialGradient>
<radialGradient id="paint2_radial_603_1101" cx="0" cy="0" r="1" gradientUnits="userSpaceOnUse" gradientTransform="rotate(61.5904) scale(409.86 302.738)">
<stop stop-color="#46FFDF"/>
<stop offset="1" stop-color="#46FFDF" stop-opacity="0"/>
</radialGradient>
<radialGradient id="paint3_radial_603_1101" cx="0" cy="0" r="1" gradientUnits="userSpaceOnUse" gradientTransform="translate(22 539.5) rotate(-55.0255) scale(402.12 297.02)">
<stop stop-color="#F0B7F1"/>
<stop offset="0.0001" stop-color="#FEC2FF"/>
<stop offset="1" stop-color="#FEC2FF" stop-opacity="0"/>
</radialGradient>
<linearGradient id="paint4_linear_603_1101" x1="195" y1="0" x2="195" y2="528" gradientUnits="userSpaceOnUse">
<stop stop-color="#F7C4F5"/>
<stop offset="0.447917" stop-color="#3336D6"/>
<stop offset="1" stop-color="#54FDDF"/>
</linearGradient>
<linearGradient id="paint5_linear_603_1101" x1="459.5" y1="175" x2="343" y2="-21.5" gradientUnits="userSpaceOnUse">
<stop/>
<stop offset="1" stop-opacity="0"/>
</linearGradient>
<linearGradient id="paint6_linear_603_1101" x1="466.5" y1="175" x2="350" y2="-21.5" gradientUnits="userSpaceOnUse">
<stop/>
<stop offset="1" stop-opacity="0"/>
</linearGradient>
<radialGradient id="paint7_radial_603_1101" cx="0" cy="0" r="1" gradientUnits="userSpaceOnUse" gradientTransform="translate(345.5 -33) rotate(-117.209) scale(99.5113 99.5113)">
<stop stop-color="#46FFD2"/>
<stop offset="1" stop-color="#46FFDF" stop-opacity="0"/>
</radialGradient>
<radialGradient id="paint8_radial_603_1101" cx="0" cy="0" r="1" gradientUnits="userSpaceOnUse" gradientTransform="translate(420.5 86.5) rotate(-121.231) scale(184.191 946.21)">
<stop stop-color="#1830C0"/>
<stop offset="1" stop-color="#1830C0" stop-opacity="0"/>
</radialGradient>
<radialGradient id="paint9_radial_603_1101" cx="0" cy="0" r="1" gradientUnits="userSpaceOnUse" gradientTransform="translate(514.5 213.5) rotate(-124.233) scale(160.87 826.406)">
<stop offset="0.0320382" stop-color="#FF81ED"/>
<stop offset="1" stop-color="#FF81ED" stop-opacity="0"/>
</radialGradient>
<radialGradient id="paint10_radial_603_1101" cx="0" cy="0" r="1" gradientUnits="userSpaceOnUse" gradientTransform="translate(498 215.5) rotate(-118.729) scale(153.951 790.862)">
<stop stop-color="#FEFEFE"/>
<stop offset="1" stop-color="#FF81ED" stop-opacity="0"/>
</radialGradient>
<linearGradient id="paint11_linear_603_1101" x1="466.5" y1="175" x2="350" y2="-21.5" gradientUnits="userSpaceOnUse">
<stop/>
<stop offset="1" stop-opacity="0"/>
</linearGradient>
<radialGradient id="paint12_radial_603_1101" cx="0" cy="0" r="1" gradientUnits="userSpaceOnUse" gradientTransform="translate(345.5 -33) rotate(-117.209) scale(99.5113 99.5113)">
<stop stop-color="#46FFD2"/>
<stop offset="1" stop-color="#46FFDF" stop-opacity="0"/>
</radialGradient>
<radialGradient id="paint13_radial_603_1101" cx="0" cy="0" r="1" gradientUnits="userSpaceOnUse" gradientTransform="translate(420.5 86.5) rotate(-121.231) scale(184.191 946.21)">
<stop stop-color="#1830C0"/>
<stop offset="1" stop-color="#1830C0" stop-opacity="0"/>
</radialGradient>
<radialGradient id="paint14_radial_603_1101" cx="0" cy="0" r="1" gradientUnits="userSpaceOnUse" gradientTransform="translate(514.5 213.5) rotate(-124.233) scale(160.87 826.406)">
<stop offset="0.0320382" stop-color="#FF81ED"/>
<stop offset="1" stop-color="#FF81ED" stop-opacity="0"/>
</radialGradient>
<radialGradient id="paint15_radial_603_1101" cx="0" cy="0" r="1" gradientUnits="userSpaceOnUse" gradientTransform="translate(498 215.5) rotate(-118.729) scale(153.951 790.862)">
<stop stop-color="#FEFEFE"/>
<stop offset="1" stop-color="#FF81ED" stop-opacity="0"/>
</radialGradient>
<linearGradient id="paint16_linear_603_1101" x1="272.5" y1="175" x2="156" y2="-21.5" gradientUnits="userSpaceOnUse">
<stop/>
<stop offset="1" stop-opacity="0"/>
</linearGradient>
<linearGradient id="paint17_linear_603_1101" x1="279.5" y1="175" x2="163" y2="-21.5" gradientUnits="userSpaceOnUse">
<stop/>
<stop offset="1" stop-opacity="0"/>
</linearGradient>
<radialGradient id="paint18_radial_603_1101" cx="0" cy="0" r="1" gradientUnits="userSpaceOnUse" gradientTransform="translate(158.5 -33) rotate(-117.209) scale(99.5113 99.5113)">
<stop stop-color="#46FFD2"/>
<stop offset="1" stop-color="#46FFDF" stop-opacity="0"/>
</radialGradient>
<radialGradient id="paint19_radial_603_1101" cx="0" cy="0" r="1" gradientUnits="userSpaceOnUse" gradientTransform="translate(233.5 86.5) rotate(-121.231) scale(184.191 946.21)">
<stop stop-color="#1830C0"/>
<stop offset="1" stop-color="#1830C0" stop-opacity="0"/>
</radialGradient>
<radialGradient id="paint20_radial_603_1101" cx="0" cy="0" r="1" gradientUnits="userSpaceOnUse" gradientTransform="translate(327.5 213.5) rotate(-124.233) scale(160.87 826.406)">
<stop offset="0.0320382" stop-color="#FF81ED"/>
<stop offset="1" stop-color="#FF81ED" stop-opacity="0"/>
</radialGradient>
<radialGradient id="paint21_radial_603_1101" cx="0" cy="0" r="1" gradientUnits="userSpaceOnUse" gradientTransform="translate(311 215.5) rotate(-118.729) scale(153.951 790.862)">
<stop stop-color="#FEFEFE"/>
<stop offset="1" stop-color="#FF81ED" stop-opacity="0"/>
</radialGradient>
<linearGradient id="paint22_linear_603_1101" x1="279.5" y1="175" x2="163" y2="-21.5" gradientUnits="userSpaceOnUse">
<stop/>
<stop offset="1" stop-opacity="0"/>
</linearGradient>
<radialGradient id="paint23_radial_603_1101" cx="0" cy="0" r="1" gradientUnits="userSpaceOnUse" gradientTransform="translate(158.5 -33) rotate(-117.209) scale(99.5113 99.5113)">
<stop stop-color="#46FFD2"/>
<stop offset="1" stop-color="#46FFDF" stop-opacity="0"/>
</radialGradient>
<radialGradient id="paint24_radial_603_1101" cx="0" cy="0" r="1" gradientUnits="userSpaceOnUse" gradientTransform="translate(233.5 86.5) rotate(-121.231) scale(184.191 946.21)">
<stop stop-color="#1830C0"/>
<stop offset="1" stop-color="#1830C0" stop-opacity="0"/>
</radialGradient>
<radialGradient id="paint25_radial_603_1101" cx="0" cy="0" r="1" gradientUnits="userSpaceOnUse" gradientTransform="translate(327.5 213.5) rotate(-124.233) scale(160.87 826.406)">
<stop offset="0.0320382" stop-color="#FF81ED"/>
<stop offset="1" stop-color="#FF81ED" stop-opacity="0"/>
</radialGradient>
<radialGradient id="paint26_radial_603_1101" cx="0" cy="0" r="1" gradientUnits="userSpaceOnUse" gradientTransform="translate(311 215.5) rotate(-118.729) scale(153.951 790.862)">
<stop stop-color="#FEFEFE"/>
<stop offset="1" stop-color="#FF81ED" stop-opacity="0"/>
</radialGradient>
<linearGradient id="paint27_linear_603_1101" x1="104.5" y1="175" x2="-11.9999" y2="-21.5" gradientUnits="userSpaceOnUse">
<stop/>
<stop offset="1" stop-opacity="0"/>
</linearGradient>
<linearGradient id="paint28_linear_603_1101" x1="111.5" y1="175" x2="-4.99995" y2="-21.5" gradientUnits="userSpaceOnUse">
<stop/>
<stop offset="1" stop-opacity="0"/>
</linearGradient>
<radialGradient id="paint29_radial_603_1101" cx="0" cy="0" r="1" gradientUnits="userSpaceOnUse" gradientTransform="translate(66.5 81.5) rotate(-122.325) scale(180.467 927.079)">
<stop stop-color="#1830C0"/>
<stop offset="1" stop-color="#1830C0" stop-opacity="0"/>
</radialGradient>
<radialGradient id="paint30_radial_603_1101" cx="0" cy="0" r="1" gradientUnits="userSpaceOnUse" gradientTransform="translate(-9.49997 -33) rotate(-117.209) scale(99.5113 99.5113)">
<stop stop-color="#46FFDF"/>
<stop offset="1" stop-color="#46FFDF" stop-opacity="0"/>
</radialGradient>
<radialGradient id="paint31_radial_603_1101" cx="0" cy="0" r="1" gradientUnits="userSpaceOnUse" gradientTransform="translate(159.5 213.5) rotate(-124.233) scale(160.87 826.406)">
<stop offset="0.0320382" stop-color="#FF81ED"/>
<stop offset="1" stop-color="#FF81ED" stop-opacity="0"/>
</radialGradient>
<radialGradient id="paint32_radial_603_1101" cx="0" cy="0" r="1" gradientUnits="userSpaceOnUse" gradientTransform="translate(143 215.5) rotate(-118.729) scale(153.951 790.862)">
<stop stop-color="#FEFEFE"/>
<stop offset="1" stop-color="#FF81ED" stop-opacity="0"/>
</radialGradient>
<linearGradient id="paint33_linear_603_1101" x1="111.5" y1="175" x2="-4.99995" y2="-21.5" gradientUnits="userSpaceOnUse">
<stop/>
<stop offset="1" stop-opacity="0"/>
</linearGradient>
<radialGradient id="paint34_radial_603_1101" cx="0" cy="0" r="1" gradientUnits="userSpaceOnUse" gradientTransform="translate(66.5 81.5) rotate(-122.325) scale(180.467 927.079)">
<stop stop-color="#1830C0"/>
<stop offset="1" stop-color="#1830C0" stop-opacity="0"/>
</radialGradient>
<radialGradient id="paint35_radial_603_1101" cx="0" cy="0" r="1" gradientUnits="userSpaceOnUse" gradientTransform="translate(-9.49997 -33) rotate(-117.209) scale(99.5113 99.5113)">
<stop stop-color="#46FFDF"/>
<stop offset="1" stop-color="#46FFDF" stop-opacity="0"/>
</radialGradient>
<radialGradient id="paint36_radial_603_1101" cx="0" cy="0" r="1" gradientUnits="userSpaceOnUse" gradientTransform="translate(159.5 213.5) rotate(-124.233) scale(160.87 826.406)">
<stop offset="0.0320382" stop-color="#FF81ED"/>
<stop offset="1" stop-color="#FF81ED" stop-opacity="0"/>
</radialGradient>
<radialGradient id="paint37_radial_603_1101" cx="0" cy="0" r="1" gradientUnits="userSpaceOnUse" gradientTransform="translate(143 215.5) rotate(-118.729) scale(153.951 790.862)">
<stop stop-color="#FEFEFE"/>
<stop offset="1" stop-color="#FF81ED" stop-opacity="0"/>
</radialGradient>
<linearGradient id="paint38_linear_603_1101" x1="387" y1="209.5" x2="498" y2="401.5" gradientUnits="userSpaceOnUse">
<stop/>
<stop offset="1" stop-opacity="0"/>
</linearGradient>
<radialGradient id="paint39_radial_603_1101" cx="0" cy="0" r="1" gradientUnits="userSpaceOnUse" gradientTransform="translate(438.5 292) rotate(59.1314) scale(154.949 1495.56)">
<stop stop-color="#FF81ED"/>
<stop offset="1" stop-color="#FF81ED" stop-opacity="0"/>
</radialGradient>
<radialGradient id="paint40_radial_603_1101" cx="0" cy="0" r="1" gradientUnits="userSpaceOnUse" gradientTransform="translate(381 200.5) rotate(59.1054) scale(142.172 1372.24)">
<stop stop-color="#EAFEFA"/>
<stop offset="1" stop-color="#46FFDF" stop-opacity="0"/>
</radialGradient>
<linearGradient id="paint41_linear_603_1101" x1="387" y1="209.5" x2="498" y2="401.5" gradientUnits="userSpaceOnUse">
<stop/>
<stop offset="1" stop-opacity="0"/>
</linearGradient>
<radialGradient id="paint42_radial_603_1101" cx="0" cy="0" r="1" gradientUnits="userSpaceOnUse" gradientTransform="translate(438.5 292) rotate(59.1314) scale(154.949 1495.56)">
<stop stop-color="#FF81ED"/>
<stop offset="1" stop-color="#FF81ED" stop-opacity="0"/>
</radialGradient>
<radialGradient id="paint43_radial_603_1101" cx="0" cy="0" r="1" gradientUnits="userSpaceOnUse" gradientTransform="translate(381 200.5) rotate(59.1054) scale(142.172 1372.24)">
<stop stop-color="#EAFEFA"/>
<stop offset="1" stop-color="#46FFDF" stop-opacity="0"/>
</radialGradient>
<linearGradient id="paint44_linear_603_1101" x1="206" y1="209.5" x2="317" y2="401.5" gradientUnits="userSpaceOnUse">
<stop/>
<stop offset="1" stop-opacity="0"/>
</linearGradient>
<radialGradient id="paint45_radial_603_1101" cx="0" cy="0" r="1" gradientUnits="userSpaceOnUse" gradientTransform="translate(257.5 292) rotate(59.1314) scale(154.949 1495.56)">
<stop stop-color="#FF81ED"/>
<stop offset="1" stop-color="#FF81ED" stop-opacity="0"/>
</radialGradient>
<radialGradient id="paint46_radial_603_1101" cx="0" cy="0" r="1" gradientUnits="userSpaceOnUse" gradientTransform="translate(200 200.5) rotate(59.1054) scale(142.172 1372.24)">
<stop stop-color="#EAFEFA"/>
<stop offset="1" stop-color="#46FFDF" stop-opacity="0"/>
</radialGradient>
<linearGradient id="paint47_linear_603_1101" x1="24.9998" y1="209.5" x2="136" y2="401.5" gradientUnits="userSpaceOnUse">
<stop/>
<stop offset="1" stop-opacity="0"/>
</linearGradient>
<radialGradient id="paint48_radial_603_1101" cx="0" cy="0" r="1" gradientUnits="userSpaceOnUse" gradientTransform="translate(76.4999 292) rotate(59.1314) scale(154.949 1495.56)">
<stop stop-color="#FF81ED"/>
<stop offset="1" stop-color="#FF81ED" stop-opacity="0"/>
</radialGradient>
<radialGradient id="paint49_radial_603_1101" cx="0" cy="0" r="1" gradientUnits="userSpaceOnUse" gradientTransform="translate(18.9999 200.5) rotate(59.1054) scale(142.172 1372.24)">
<stop stop-color="#EAFEFA"/>
<stop offset="1" stop-color="#46FFDF" stop-opacity="0"/>
</radialGradient>
<clipPath id="clip0_603_1101">
<rect width="390" height="528" fill="white" transform="translate(528) rotate(90)"/>
</clipPath>
</defs>
</svg>
